# AST/ASF file generated using VICON BodyLanguage
# -----------------------------------------------
:version 1.10
:name VICON
:units
  mass 1.0
  length 0.45
  angle deg
:documentation
   .ast/.asf automatically generated from VICON data using
   VICON BodyBuilder and BodyLanguage model FoxedUp or BRILLIANT.MOD
:root
   order TX TY TZ RX RY RZ
   axis XYZ
   position 0 0 0  
   orientation 0 0 0 
:bonedata
  begin
     id 1 
     name lhipjoint
     direction 0.561001 -0.76473 0.316963 
     length 2.4722 
     axis 0 0 0  XYZ
  end
  begin
     id 2 
     name lfemur
     direction 0.34202 -0.939693 0  
     length 7.59403  
     axis 0 0 20  XYZ
    dof rx ry rz
    limits (-160.0 20.0)
           (-70.0 70.0)
           (-60.0 70.0)
  end
  begin
     id 3 
     name ltibia
     direction 0.34202 -0.939693 0   
     length 7.89655   
     axis 0 0 20   XYZ
    dof rx
    limits (-10.0 170.0)
  end
  begin
     id 4 
     name lfoot
     direction 0.061296 -0.168409 0.98381   
     length 2.73287   
     axis -90 7.62852e-016 20   XYZ
    dof rx rz
    limits (-45.0 90.0)
           (-70.0 20.0)
  end
  begin
     id 5 
     name ltoes
     direction 1.53547e-011 -4.21984e-011 1   
     length 1.37057   
     axis -90 7.62852e-016 20   XYZ
    dof rx
    limits (-90.0 20.0)
  end
  begin
     id 6 
     name rhipjoint
     direction -0.559611 -0.765599 0.317323   
     length 2.46939  
     axis 0 0 0  XYZ 
  end
  begin
     id 7 
     name rfemur
     direction -0.34202 -0.939693 0   
     length 7.53712   
     axis 0 0 -20   XYZ
    dof rx ry rz
    limits (-160.0 20.0)
           (-70.0 70.0)
           (-70.0 60.0)
  end
  begin
     id 8 
     name rtibia
     direction -0.34202 -0.939693 0   
     length 8.12549   
     axis 0 0 -20   XYZ
    dof rx
    limits (-10.0 170.0)
 end
 begin
     id 9 
     name rfoot
     direction -0.066984 -0.184037 0.980634   
     length 2.67541  
     axis -90 -7.62852e-016 -20   XYZ
    dof rx rz
    limits (-45.0 90.0)
           (-20.0 70.0)
  end
  begin
     id 10 
     name rtoes
     direction -1.53549e-011 -4.21786e-011 1   
     length 1.34085   
     axis -90 -7.62852e-016 -20   XYZ
    dof rx
    limits (-90.0 20.0)
  end
  begin
     id 11 
     name lowerback
     direction -0.0522728 0.992594 -0.109658   
     length 2.05633   
     axis 0 0 0   XYZ
    dof rx ry rz
    limits (-20.0 45.0)
           (-30.0 30.0)
           (-30.0 30.0)
  end
  begin
     id 12 
     name upperback
     direction 0.00589338 0.999977 0.00335704   
     length 2.05845   
     axis 0 0 0   XYZ
    dof rx ry rz
    limits (-20.0 45.0)
           (-30.0 30.0)
           (-30.0 30.0)
  end
  begin
     id 13 
     name thorax
     direction 0.0292928 0.998059 0.0549487   
     length 2.09281   
     axis 0 0 0   XYZ
    dof rx ry rz
    limits (-20.0 45.0)
           (-30.0 30.0)
           (-30.0 30.0)
  end
  begin
     id 14 
     name lowerneck
     direction 0.0356368 0.980775 0.191858   
     length 1.84767   
     axis 0 0 0   XYZ
    dof rx ry rz
    limits (-20.0 45.0)
           (-30.0 30.0)
           (-30.0 30.0)
  end
  begin
     id 15 
     name upperneck
     direction -0.0227605 0.98931 -0.14404   
     length 1.89582   
     axis 0 0 0   XYZ
    dof rx ry rz
    limits (-20.0 45.0)
           (-30.0 30.0)
           (-30.0 30.0)
  end
  begin
     id 16
     name head
     direction -0.00932985 0.997511 -0.0698904  
     length 1.90213  
     axis 0 0 0   XYZ
    dof rx ry rz
    limits (-20.0 45.0)
           (-30.0 30.0)
           (-30.0 30.0)
  end
  begin
     id 17 
     name lclavicle
     direction 0.873442 0.479511 0.0846686  
     length 3.41193  
     axis 0 0 0   XYZ
    dof ry rz
    limits (-20.0 10.0)
           (0.0 20.0)
  end
  begin
     id 18 
     name lhumerus
     direction 1 -4.4897e-011 -5.62117e-018   
     length 5.59864   
     axis 180 -30 -90   XYZ
    dof rx ry rz
    limits (-60.0 90.0)
           (-90.0 90.0)
           (-90.0 90.0)
  end
  begin
     id 19
     name lradius
     direction 1 -4.48966e-011 -6.26295e-027   
     length 3.59542   
     axis 180 -30 -90   XYZ
    dof rx
    limits (-10.0 170.0)
  end
  begin
     id 20
     name lwrist
     direction 1 -4.48947e-011 -1.74096e-026   
     length 1.79771   
     axis 1.04567e-014 90 90   XYZ
    dof ry
    limits (-180.0 0.0)
 end
  begin
     id 21 
     name lhand
     direction 1 -4.49085e-011 -3.48469e-026   
     length 0.572014   
     axis 2.22196e-014 90 90   XYZ
    dof rx rz
    limits (-90.0 90.0)
           (-45.0 45.0)
  end
  begin
     id 22 
     name lfingers
     direction 1 -4.48884e-011 -6.96135e-026   
     length 0.461173   
     axis 4.44383e-014 90 90   XYZ
    dof rx
    limits (0.0 90.0)
  end
  begin
     id 23
     name lthumb
     direction 0.707107 -6.34976e-011 0.707107   
     length 0.662154   
     axis -90 45 -5.4397e-014   XYZ
    dof rx rz
    limits (-45.0 45.0)
           (-45.0 45.0)
  end
  begin
     id 24 
     name rclavicle
     direction -0.890242 0.443271 0.104786   
     length 3.46753  
     axis 0 0 0   XYZ 
    dof ry rz
    limits (-10.0 20.0)
           (-20.0 0.0)
  end
  begin
     id 25 
     name rhumerus
     direction -1 -4.48963e-011 -5.41723e-018  
     length 5.8094   
     axis 180 30 90   XYZ
    dof rx ry rz
    limits (-90.0 60.0)
           (-90.0 90.0)
           (-90.0 90.0)
  end
  begin
     id 26 
     name rradius
     direction -1 -4.48958e-011 -6.51059e-027   
     length 3.66953   
     axis 180 30 90   XYZ
    dof rx
    limits (-10.0 170.0)
  end
  begin
     id 27 
     name rwrist
     direction -1 -4.48975e-011 -1.74124e-026   
     length 1.83476   
     axis 1.04567e-014 -90 -90   XYZ
    dof ry
    limits (-180.0 0.0)
  end
  begin
     id 28
     name rhand
     direction -1 -4.49013e-011 -3.48326e-026   
     length 0.57843   
     axis 2.22196e-014 -90 -90   XYZ
    dof rx rz
    limits (-90.0 90.0)
           (-45.0 45.0)
  end
  begin
     id 29
     name rfingers
     direction -1 -4.49023e-011 -6.9669e-026   
     length 0.466345   
     axis 4.44383e-014 -90 -90   XYZ
    dof rx
    limits (0.0 90.0)
  end
  begin
     id 30
     name rthumb
     direction -0.707107 -6.34926e-011 0.707107   
     length 0.669581   
     axis -90 -45 5.4397e-014   XYZ
    dof rx rz
    limits (-45.0 45.0)
           (-45.0 45.0)
  end
:hierarchy
  begin
    root lhipjoint rhipjoint lowerback
    lhipjoint lfemur
    lfemur ltibia
    ltibia lfoot
    lfoot ltoes
    rhipjoint rfemur
    rfemur rtibia
    rtibia rfoot
    rfoot rtoes
    lowerback upperback
    upperback thorax
    thorax lowerneck lclavicle rclavicle
    lowerneck upperneck
    upperneck head
    lclavicle lhumerus
    lhumerus lradius
    lradius lwrist
    lwrist lhand lthumb
    lhand lfingers
    rclavicle rhumerus
    rhumerus rradius
    rradius rwrist
    rwrist rhand rthumb
    rhand rfingers
  end

#!OML:ASF H:\SkateBoarding\Project 1\Capture day 1\Session 1\Skater.ASF
:FULLY-SPECIFIED
:DEGREES
131
root 7.60693 18.2819 -27.0591 15.2003 5.80944 1.99003
lowerback 15.8916 6.12296 -6.26408
upperback 5.93421 7.06745 -0.165993
thorax -3.2379 3.44763 1.99488
lowerneck -23.3603 -6.32708 -3.90931
upperneck 31.7919 -10.6502 8.26273
head 15.9563 -3.65964 2.0184
rclavicle -1.07344e-014 3.97569e-015
rhumerus 0.0327876 -2.23011 -76.0131
rradius 24.3875
rwrist 20.7442
rhand -37.3449 1.71551
rfingers 7.12502
rthumb -10.4074 -28.0069
lclavicle -1.07344e-014 3.97569e-015
lhumerus -33.7967 -4.52586 86.7431
lradius 31.2598
lwrist 16.5332
lhand -15.0127 19.9772
lfingers 7.12502
lthumb 11.1525 49.6608
rfemur -13.5614 -0.18556 17.0875
rtibia 45.0988
rfoot -4.7076 19.5797
rtoes 9.31597
lfemur -40.0786 -9.53001 -18.4377
ltibia 35.0519
lfoot -27.5323 -1.99158
ltoes -7.43403
132
root 7.64595 18.3208 -26.9506 15.3857 5.73926 2.25873
lowerback 16.4959 6.17803 -6.46322
upperback 6.11314 7.06421 -0.119228
thorax -3.39178 3.44161 2.10615
lowerneck -23.5673 -6.41322 -3.93582
upperneck 31.6044 -10.7062 8.16375
head 15.9101 -3.70011 1.95909
rclavicle -1.82882e-014 3.26007e-014
rhumerus 0.884113 -2.47539 -75.7567
rradius 24.08
rwrist 21.0717
rhand -37.235 1.71903
rfingers 7.12502
rthumb -10.3014 -28.0087
lclavicle -1.82882e-014 3.26007e-014
lhumerus -33.4365 -5.34823 87.1626
lradius 31.4924
lwrist 16.5922
lhand -14.9398 18.3218
lfingers 7.12502
lthumb 11.2229 48.0016
rfemur -16.3522 -1.5553 16.4062
rtibia 50.2367
rfoot -2.57119 18.5639
rtoes 9.59942
lfemur -39.3219 -9.44127 -18.9213
ltibia 34.1139
lfoot -27.3939 -2.10545
ltoes -7.35837
133
root 7.68391 18.3622 -26.8457 15.5328 5.66094 2.53676
lowerback 17.1846 6.23591 -6.64204
upperback 6.3031 7.05849 -0.0693076
thorax -3.57385 3.43446 2.20356
lowerneck -23.7688 -6.49336 -3.97733
upperneck 31.3771 -10.7407 8.05987
head 15.8423 -3.73605 1.90433
rclavicle 7.4743e-014 -3.33958e-014
rhumerus 1.77392 -2.70206 -75.4885
rradius 23.7921
rwrist 21.3955
rhand -37.0588 1.69991
rfingers 7.12502
rthumb -10.1314 -28.0362
lclavicle 7.4743e-014 -3.33958e-014
lhumerus -33.0795 -6.27936 87.5996
lradius 31.8125
lwrist 16.6679
lhand -14.8517 16.5175
lfingers 7.12502
lthumb 11.3077 46.1926
rfemur -19.1943 -2.81237 15.7303
rtibia 55.4528
rfoot -0.841827 17.7257
rtoes 9.55327
lfemur -38.4728 -9.28992 -19.4399
ltibia 33.0426
lfoot -27.1784 -2.17504
ltoes -7.34623
134
root 7.71985 18.4052 -26.743 15.6205 5.56343 2.80771
lowerback 17.9531 6.3039 -6.80406
upperback 6.51399 7.06012 -0.00960267
thorax -3.77239 3.43049 2.29502
lowerneck -23.9583 -6.56585 -4.03259
upperneck 31.1017 -10.7529 7.9556
head 15.7479 -3.76673 1.85617
rclavicle 8.38871e-014 -4.77083e-014
rhumerus 2.70866 -2.93711 -75.2184
rradius 23.5169
rwrist 21.7255
rhand -37.0339 1.71548
rfingers 7.12502
rthumb -10.1073 -28.0218
lclavicle 8.38871e-014 -4.77083e-014
lhumerus -32.724 -7.30455 88.0381
lradius 32.2193
lwrist 16.7607
lhand -14.744 14.8069
lfingers 7.12502
lthumb 11.4116 44.4763
rfemur -22.0398 -3.92649 15.0725
rtibia 60.6766
rfoot 0.537978 17.2639
rtoes 9.2451
lfemur -37.5128 -9.09598 -19.9613
ltibia 31.8541
lfoot -26.9121 -2.21904
ltoes -7.3334
135
root 7.75415 18.4481 -26.6431 15.6758 5.46989 3.07173
lowerback 18.7836 6.36575 -6.93696
upperback 6.73467 7.05153 0.0603155
thorax -3.98644 3.42141 2.37962
lowerneck -24.1345 -6.62609 -4.10688
upperneck 30.7837 -10.7351 7.85193
head 15.6297 -3.7892 1.8179
rclavicle -2.38542e-014 2.54444e-014
rhumerus 3.69341 -3.19309 -74.9507
rradius 23.2441
rwrist 22.1091
rhand -37.0565 1.75045
rfingers 7.12502
rthumb -10.1292 -27.9857
lclavicle -2.38542e-014 2.54444e-014
lhumerus -32.374 -8.37686 88.4641
lradius 32.7087
lwrist 16.8485
lhand -14.6187 13.4112
lfingers 7.12502
lthumb 11.5325 43.0739
rfemur -24.8918 -4.93767 14.4276
rtibia 65.8498
rfoot 1.67161 17.2764
rtoes 8.76998
lfemur -36.4885 -8.93005 -20.4554
ltibia 30.5775
lfoot -26.6269 -2.25
ltoes -7.22561
136
root 7.78718 18.4904 -26.5435 15.7066 5.38803 3.32406
lowerback 19.6342 6.4191 -7.03667
upperback 6.96759 7.03506 0.141509
thorax -4.19088 3.40798 2.46027
lowerneck -24.2898 -6.67734 -4.19763
upperneck 30.4263 -10.6953 7.75303
head 15.4891 -3.80583 1.78944
rclavicle 1.03368e-014 3.4191e-014
rhumerus 4.71511 -3.52472 -74.695
rradius 22.9643
rwrist 22.6426
rhand -37.1703 1.78286
rfingers 7.12502
rthumb -10.2389 -27.9479
lclavicle 1.03368e-014 3.4191e-014
lhumerus -32.0257 -9.46467 88.8645
lradius 33.2657
lwrist 16.9153
lhand -14.4774 12.4226
lfingers 7.12502
lthumb 11.6688 42.0776
rfemur -27.7305 -5.86888 13.7925
rtibia 70.9292
rfoot 2.51069 17.7801
rtoes 8.11532
lfemur -35.4144 -8.83166 -20.9065
ltibia 29.2459
lfoot -26.368 -2.27211
ltoes -7.01584
137
root 7.81729 18.531 -26.4446 15.7416 5.29609 3.52839
lowerback 20.4719 6.47603 -7.11526
upperback 7.20047 7.02806 0.247387
thorax -4.38657 3.39876 2.55582
lowerneck -24.43 -6.72029 -4.30837
upperneck 30.043 -10.6351 7.65941
head 15.3347 -3.81665 1.77142
rclavicle 6.44062e-014 -7.95139e-016
rhumerus 5.76574 -3.93791 -74.4521
rradius 22.6968
rwrist 23.2683
rhand -37.3601 1.80774
rfingers 7.12502
rthumb -10.422 -27.914
lclavicle 6.44062e-014 -7.95139e-016
lhumerus -31.6761 -10.5255 89.2304
lradius 33.8758
lwrist 16.956
lhand -14.321 11.9138
lfingers 7.12502
lthumb 11.8195 41.5603
rfemur -30.5943 -6.68544 13.2159
rtibia 75.8835
rfoot 3.03677 18.6842
rtoes 7.29342
lfemur -34.3531 -8.82735 -21.2465
ltibia 27.8985
lfoot -26.1898 -2.26
ltoes -6.69441
138
root 7.84527 18.5687 -26.346 15.8357 5.21829 3.68815
lowerback 21.2369 6.52119 -7.16075
upperback 7.41957 7.01873 0.371389
thorax -4.55515 3.3883 2.66039
lowerneck -24.5616 -6.75684 -4.43372
upperneck 29.6485 -10.5611 7.5713
head 15.1752 -3.82286 1.76166
rclavicle 3.97569e-015 -7.95139e-016
rhumerus 6.84311 -4.41022 -74.2185
rradius 22.4453
rwrist 23.8838
rhand -37.5443 1.85705
rfingers 7.12502
rthumb -10.5997 -27.8556
lclavicle 3.97569e-015 -7.95139e-016
lhumerus -31.3173 -11.518 89.5495
lradius 34.5166
lwrist 16.9621
lhand -14.1201 11.9352
lfingers 7.12502
lthumb 12.0133 41.5704
rfemur -33.5416 -7.44507 12.6995
rtibia 80.6955
rfoot 3.15935 19.8485
rtoes 6.20766
lfemur -33.3843 -8.9434 -21.4711
ltibia 26.5756
lfoot -26.1038 -2.21607
ltoes -6.27354
139
root 7.87092 18.6038 -26.2464 15.9971 5.13614 3.79574
lowerback 21.9124 6.5661 -7.18223
upperback 7.62002 7.02201 0.509507
thorax -4.69637 3.38394 2.77153
lowerneck -24.6857 -6.79093 -4.56331
upperneck 29.2548 -10.4853 7.49034
head 15.0169 -3.8274 1.75668
rclavicle 1.90833e-014 -2.46493e-014
rhumerus 7.91957 -4.91828 -73.9912
rradius 22.2196
rwrist 24.4496
rhand -37.7349 1.93043
rfingers 7.12502
rthumb -10.7836 -27.7728
lclavicle 1.90833e-014 -2.46493e-014
lhumerus -30.9461 -12.4187 89.8056
lradius 35.1883
lwrist 16.8885
lhand -13.9133 12.1155
lfingers 7.12502
lthumb 12.2127 41.739
rfemur -36.5808 -8.14576 12.2537
rtibia 85.3402
rfoot 2.75026 21.1184
rtoes 4.62984
lfemur -32.5348 -9.14217 -21.5845
ltibia 25.3201
lfoot -26.1108 -2.15287
ltoes -5.81711
140
root 7.89445 18.6355 -26.1458 16.2702 5.04091 3.84775
lowerback 22.4463 6.6121 -7.19013
upperback 7.79327 7.04243 0.661987
thorax -4.79631 3.3879 2.89744
lowerneck -24.8116 -6.82618 -4.70241
upperneck 28.8702 -10.4113 7.41649
head 14.8661 -3.83179 1.75636
rclavicle 0 -3.97569e-015
rhumerus 8.99051 -5.38328 -73.7387
rradius 22.0321
rwrist 24.8583
rhand -37.8755 2.01293
rfingers 7.12502
rthumb -10.9192 -27.6831
lclavicle 0 -3.97569e-015
lhumerus -30.5507 -13.1971 90.0038
lradius 35.8617
lwrist 16.7524
lhand -13.7374 12.3629
lfingers 7.12502
lthumb 12.3823 41.9762
rfemur -39.7715 -8.79932 11.8907
rtibia 89.7976
rfoot 1.8611 22.2969
rtoes 2.70718
lfemur -31.8716 -9.41305 -21.5796
ltibia 24.1682
lfoot -26.2253 -2.06976
ltoes -5.34093
